<mxfile host="app.diagrams.net" agent="Mozilla/5.0 (Windows NT 10.0; Win64; x64) AppleWebKit/537.36 (KHTML, like Gecko) Chrome/131.0.0.0 Safari/537.36" version="25.0.3">
  <diagram id="6a731a19-8d31-9384-78a2-239565b7b9f0" name="Page-1">
    <mxGraphModel dx="1728" dy="943" grid="1" gridSize="10" guides="1" tooltips="1" connect="1" arrows="1" fold="1" page="1" pageScale="1" pageWidth="1169" pageHeight="827" background="none" math="0" shadow="0">
      <root>
        <mxCell id="0" />
        <mxCell id="1" parent="0" />
        <mxCell id="FllbzKFlJK6ehd7ZULbo-95" value="" style="edgeStyle=orthogonalEdgeStyle;rounded=0;orthogonalLoop=1;jettySize=auto;html=1;" parent="1" source="2" target="FllbzKFlJK6ehd7ZULbo-77" edge="1">
          <mxGeometry relative="1" as="geometry" />
        </mxCell>
        <mxCell id="2" value="start" style="shape=mxgraph.flowchart.terminator;strokeWidth=2;gradientColor=none;gradientDirection=north;fontStyle=0;html=1;" parent="1" vertex="1">
          <mxGeometry x="31.5" y="60" width="120" height="30" as="geometry" />
        </mxCell>
        <mxCell id="FllbzKFlJK6ehd7ZULbo-97" value="" style="edgeStyle=orthogonalEdgeStyle;rounded=0;orthogonalLoop=1;jettySize=auto;html=1;" parent="1" source="FllbzKFlJK6ehd7ZULbo-56" target="FllbzKFlJK6ehd7ZULbo-81" edge="1">
          <mxGeometry relative="1" as="geometry" />
        </mxCell>
        <mxCell id="FllbzKFlJK6ehd7ZULbo-119" value="Yes" style="edgeLabel;html=1;align=center;verticalAlign=middle;resizable=0;points=[];" parent="FllbzKFlJK6ehd7ZULbo-97" vertex="1" connectable="0">
          <mxGeometry x="-0.0353" y="1" relative="1" as="geometry">
            <mxPoint x="-2" y="-2" as="offset" />
          </mxGeometry>
        </mxCell>
        <mxCell id="FllbzKFlJK6ehd7ZULbo-98" value="" style="edgeStyle=orthogonalEdgeStyle;rounded=0;orthogonalLoop=1;jettySize=auto;html=1;" parent="1" source="FllbzKFlJK6ehd7ZULbo-56" edge="1">
          <mxGeometry relative="1" as="geometry">
            <mxPoint x="241.5" y="263" as="targetPoint" />
          </mxGeometry>
        </mxCell>
        <mxCell id="FllbzKFlJK6ehd7ZULbo-118" value="No" style="edgeLabel;html=1;align=center;verticalAlign=middle;resizable=0;points=[];" parent="FllbzKFlJK6ehd7ZULbo-98" vertex="1" connectable="0">
          <mxGeometry x="-0.3564" y="-2" relative="1" as="geometry">
            <mxPoint x="16" y="-2" as="offset" />
          </mxGeometry>
        </mxCell>
        <mxCell id="FllbzKFlJK6ehd7ZULbo-56" value="Existing&lt;div&gt;Manufacture?&lt;/div&gt;" style="shape=mxgraph.flowchart.decision;strokeWidth=2;gradientColor=none;gradientDirection=north;fontStyle=0;html=1;" parent="1" vertex="1">
          <mxGeometry x="31" y="225.25" width="120.5" height="77" as="geometry" />
        </mxCell>
        <mxCell id="FllbzKFlJK6ehd7ZULbo-96" value="" style="edgeStyle=orthogonalEdgeStyle;rounded=0;orthogonalLoop=1;jettySize=auto;html=1;" parent="1" source="FllbzKFlJK6ehd7ZULbo-77" target="FllbzKFlJK6ehd7ZULbo-56" edge="1">
          <mxGeometry relative="1" as="geometry" />
        </mxCell>
        <mxCell id="FllbzKFlJK6ehd7ZULbo-77" value="&lt;span style=&quot;text-wrap-mode: nowrap;&quot;&gt;Open Manufacture&lt;/span&gt;&lt;div&gt;&lt;span style=&quot;text-wrap-mode: nowrap;&quot;&gt;Interface&lt;/span&gt;&lt;/div&gt;" style="rounded=1;whiteSpace=wrap;html=1;" parent="1" vertex="1">
          <mxGeometry x="31.5" y="130" width="120" height="60" as="geometry" />
        </mxCell>
        <mxCell id="FllbzKFlJK6ehd7ZULbo-106" style="edgeStyle=orthogonalEdgeStyle;rounded=0;orthogonalLoop=1;jettySize=auto;html=1;exitX=0.5;exitY=1;exitDx=0;exitDy=0;entryX=0;entryY=0.5;entryDx=0;entryDy=0;" parent="1" source="FllbzKFlJK6ehd7ZULbo-81" edge="1">
          <mxGeometry relative="1" as="geometry">
            <Array as="points">
              <mxPoint x="92" y="540" />
              <mxPoint x="422" y="540" />
              <mxPoint x="422" y="160" />
            </Array>
            <mxPoint x="465" y="160" as="targetPoint" />
          </mxGeometry>
        </mxCell>
        <mxCell id="FllbzKFlJK6ehd7ZULbo-81" value="&lt;span style=&quot;text-wrap-mode: nowrap;&quot;&gt;Tap Manufacture&lt;/span&gt;" style="rounded=1;whiteSpace=wrap;html=1;" parent="1" vertex="1">
          <mxGeometry x="31.5" y="354" width="120" height="60" as="geometry" />
        </mxCell>
        <mxCell id="FllbzKFlJK6ehd7ZULbo-121" value="end" style="shape=mxgraph.flowchart.terminator;strokeWidth=2;gradientColor=none;gradientDirection=north;fontStyle=0;html=1;" parent="1" vertex="1">
          <mxGeometry x="570" y="676" width="120" height="30" as="geometry" />
        </mxCell>
        <mxCell id="3FSWND0N6_TuDMLNCHhA-4" value="" style="edgeStyle=orthogonalEdgeStyle;rounded=0;orthogonalLoop=1;jettySize=auto;html=1;" parent="1" source="3FSWND0N6_TuDMLNCHhA-2" target="3FSWND0N6_TuDMLNCHhA-3" edge="1">
          <mxGeometry relative="1" as="geometry" />
        </mxCell>
        <mxCell id="3FSWND0N6_TuDMLNCHhA-2" value="&lt;span style=&quot;text-wrap-mode: nowrap;&quot;&gt;Select New&amp;nbsp;&lt;/span&gt;&lt;div&gt;&lt;span style=&quot;text-wrap-mode: nowrap;&quot;&gt;Manufacture&lt;/span&gt;&lt;/div&gt;" style="rounded=1;whiteSpace=wrap;html=1;" parent="1" vertex="1">
          <mxGeometry x="242" y="233" width="120" height="60" as="geometry" />
        </mxCell>
        <mxCell id="3FSWND0N6_TuDMLNCHhA-6" value="" style="edgeStyle=orthogonalEdgeStyle;rounded=0;orthogonalLoop=1;jettySize=auto;html=1;" parent="1" source="3FSWND0N6_TuDMLNCHhA-3" target="3FSWND0N6_TuDMLNCHhA-5" edge="1">
          <mxGeometry relative="1" as="geometry" />
        </mxCell>
        <mxCell id="3FSWND0N6_TuDMLNCHhA-3" value="&lt;span style=&quot;text-wrap-mode: nowrap;&quot;&gt;Show assembly/kit&lt;/span&gt;&lt;div&gt;&lt;span style=&quot;text-wrap-mode: nowrap;&quot;&gt;and Location&lt;/span&gt;&lt;/div&gt;" style="rounded=1;whiteSpace=wrap;html=1;" parent="1" vertex="1">
          <mxGeometry x="242" y="334" width="120" height="60" as="geometry" />
        </mxCell>
        <mxCell id="3FSWND0N6_TuDMLNCHhA-7" style="edgeStyle=orthogonalEdgeStyle;rounded=0;orthogonalLoop=1;jettySize=auto;html=1;exitX=0.5;exitY=1;exitDx=0;exitDy=0;" parent="1" source="3FSWND0N6_TuDMLNCHhA-5" edge="1">
          <mxGeometry relative="1" as="geometry">
            <mxPoint x="302" y="540" as="targetPoint" />
          </mxGeometry>
        </mxCell>
        <mxCell id="3FSWND0N6_TuDMLNCHhA-5" value="&lt;span style=&quot;text-wrap-mode: nowrap;&quot;&gt;Pick and schedule&lt;/span&gt;&lt;div&gt;&lt;span style=&quot;text-wrap-mode: nowrap;&quot;&gt;Manufacturing&lt;/span&gt;&lt;/div&gt;" style="rounded=1;whiteSpace=wrap;html=1;" parent="1" vertex="1">
          <mxGeometry x="242" y="430" width="120" height="60" as="geometry" />
        </mxCell>
        <mxCell id="3FSWND0N6_TuDMLNCHhA-51" value="" style="edgeStyle=orthogonalEdgeStyle;rounded=0;orthogonalLoop=1;jettySize=auto;html=1;" parent="1" edge="1">
          <mxGeometry relative="1" as="geometry">
            <mxPoint x="630" y="636" as="sourcePoint" />
            <mxPoint x="630" y="676" as="targetPoint" />
          </mxGeometry>
        </mxCell>
        <mxCell id="3FSWND0N6_TuDMLNCHhA-50" value="" style="edgeStyle=orthogonalEdgeStyle;rounded=0;orthogonalLoop=1;jettySize=auto;html=1;" parent="1" source="3FSWND0N6_TuDMLNCHhA-43" edge="1">
          <mxGeometry relative="1" as="geometry">
            <mxPoint x="630" y="576" as="targetPoint" />
          </mxGeometry>
        </mxCell>
        <mxCell id="3FSWND0N6_TuDMLNCHhA-43" value="Print Pick Marker&lt;div&gt;Or Pick to Pallet&lt;/div&gt;" style="rounded=1;whiteSpace=wrap;html=1;" parent="1" vertex="1">
          <mxGeometry x="570" y="480" width="120" height="60" as="geometry" />
        </mxCell>
        <mxCell id="Rs9JF1NRuI00UWB59wRU-11" style="edgeStyle=orthogonalEdgeStyle;rounded=0;orthogonalLoop=1;jettySize=auto;html=1;exitX=0.5;exitY=1;exitDx=0;exitDy=0;entryX=0.5;entryY=0;entryDx=0;entryDy=0;" parent="1" source="3FSWND0N6_TuDMLNCHhA-44" target="Rs9JF1NRuI00UWB59wRU-3" edge="1">
          <mxGeometry relative="1" as="geometry">
            <Array as="points">
              <mxPoint x="730" y="340" />
              <mxPoint x="630" y="340" />
            </Array>
          </mxGeometry>
        </mxCell>
        <mxCell id="3FSWND0N6_TuDMLNCHhA-44" value="Overwrite the assembly/kit&lt;div&gt;ad-hoc&lt;/div&gt;" style="rounded=1;whiteSpace=wrap;html=1;" parent="1" vertex="1">
          <mxGeometry x="670" y="233" width="120" height="60" as="geometry" />
        </mxCell>
        <mxCell id="xhCOY_ojmJU9_ownInAu-4" value="" style="edgeStyle=orthogonalEdgeStyle;rounded=0;orthogonalLoop=1;jettySize=auto;html=1;" parent="1" target="xhCOY_ojmJU9_ownInAu-3" edge="1">
          <mxGeometry relative="1" as="geometry">
            <mxPoint x="525" y="190" as="sourcePoint" />
          </mxGeometry>
        </mxCell>
        <mxCell id="tU1RTp7UTsGop1RhKcKW-3" value="" style="edgeStyle=orthogonalEdgeStyle;rounded=0;orthogonalLoop=1;jettySize=auto;html=1;" parent="1" source="tU1RTp7UTsGop1RhKcKW-2" target="3FSWND0N6_TuDMLNCHhA-2" edge="1">
          <mxGeometry relative="1" as="geometry" />
        </mxCell>
        <mxCell id="tU1RTp7UTsGop1RhKcKW-2" value="Sales Order and Transfer Out" style="rounded=0;whiteSpace=wrap;html=1;fillColor=#d5e8d4;strokeColor=#82b366;" parent="1" vertex="1">
          <mxGeometry x="242" y="130" width="120" height="60" as="geometry" />
        </mxCell>
        <mxCell id="xhCOY_ojmJU9_ownInAu-2" value="&lt;span style=&quot;color: rgb(0, 0, 0); font-family: Helvetica; font-size: 12px; font-style: normal; font-variant-ligatures: normal; font-variant-caps: normal; font-weight: 400; letter-spacing: normal; orphans: 2; text-align: center; text-indent: 0px; text-transform: none; widows: 2; word-spacing: 0px; -webkit-text-stroke-width: 0px; white-space: normal; background-color: rgb(251, 251, 251); text-decoration-thickness: initial; text-decoration-style: initial; text-decoration-color: initial; display: inline !important; float: none;&quot;&gt;Cross Docking&lt;/span&gt;" style="rounded=1;whiteSpace=wrap;html=1;" parent="1" vertex="1">
          <mxGeometry x="570" y="576" width="120" height="60" as="geometry" />
        </mxCell>
        <mxCell id="xhCOY_ojmJU9_ownInAu-5" value="" style="edgeStyle=orthogonalEdgeStyle;rounded=0;orthogonalLoop=1;jettySize=auto;html=1;" parent="1" source="xhCOY_ojmJU9_ownInAu-3" target="3FSWND0N6_TuDMLNCHhA-44" edge="1">
          <mxGeometry relative="1" as="geometry" />
        </mxCell>
        <mxCell id="xhCOY_ojmJU9_ownInAu-6" value="No" style="edgeLabel;html=1;align=center;verticalAlign=middle;resizable=0;points=[];" parent="xhCOY_ojmJU9_ownInAu-5" vertex="1" connectable="0">
          <mxGeometry x="-0.1095" relative="1" as="geometry">
            <mxPoint as="offset" />
          </mxGeometry>
        </mxCell>
        <mxCell id="xhCOY_ojmJU9_ownInAu-8" value="" style="edgeStyle=orthogonalEdgeStyle;rounded=0;orthogonalLoop=1;jettySize=auto;html=1;exitX=0.5;exitY=1;exitDx=0;exitDy=0;exitPerimeter=0;entryX=0.5;entryY=0;entryDx=0;entryDy=0;" parent="1" source="xhCOY_ojmJU9_ownInAu-3" target="Rs9JF1NRuI00UWB59wRU-3" edge="1">
          <mxGeometry relative="1" as="geometry">
            <mxPoint x="630" y="380" as="targetPoint" />
            <Array as="points">
              <mxPoint x="525" y="340" />
              <mxPoint x="630" y="340" />
            </Array>
          </mxGeometry>
        </mxCell>
        <mxCell id="Rs9JF1NRuI00UWB59wRU-5" value="Yes" style="edgeLabel;html=1;align=center;verticalAlign=middle;resizable=0;points=[];" parent="xhCOY_ojmJU9_ownInAu-8" vertex="1" connectable="0">
          <mxGeometry x="-0.1495" relative="1" as="geometry">
            <mxPoint x="-39" y="-20" as="offset" />
          </mxGeometry>
        </mxCell>
        <mxCell id="xhCOY_ojmJU9_ownInAu-3" value="Default&amp;nbsp;&lt;div&gt;Components?&lt;/div&gt;" style="shape=mxgraph.flowchart.decision;strokeWidth=2;gradientColor=none;gradientDirection=north;fontStyle=0;html=1;" parent="1" vertex="1">
          <mxGeometry x="463" y="225.25" width="124" height="75.5" as="geometry" />
        </mxCell>
        <mxCell id="Rs9JF1NRuI00UWB59wRU-2" value="Complete Manufacturing" style="rounded=1;whiteSpace=wrap;html=1;" parent="1" vertex="1">
          <mxGeometry x="465" y="130" width="120" height="60" as="geometry" />
        </mxCell>
        <mxCell id="Rs9JF1NRuI00UWB59wRU-10" value="" style="edgeStyle=orthogonalEdgeStyle;rounded=0;orthogonalLoop=1;jettySize=auto;html=1;" parent="1" source="Rs9JF1NRuI00UWB59wRU-3" target="3FSWND0N6_TuDMLNCHhA-43" edge="1">
          <mxGeometry relative="1" as="geometry" />
        </mxCell>
        <mxCell id="Rs9JF1NRuI00UWB59wRU-3" value="Adjust Stock&lt;div&gt;in Nexus&lt;/div&gt;" style="rounded=1;whiteSpace=wrap;html=1;fillColor=#d5e8d4;strokeColor=#82b366;" parent="1" vertex="1">
          <mxGeometry x="570" y="384" width="120" height="60" as="geometry" />
        </mxCell>
      </root>
    </mxGraphModel>
  </diagram>
</mxfile>
